<svg width="15" height="17" viewBox="0 0 15 17" fill="none" xmlns="http://www.w3.org/2000/svg">
<path d="M13.0417 15.0416H1.95833V6.33329H13.0417M10.6667 0.791626V2.37496H4.33333V0.791626H2.75V2.37496H1.95833C1.07958 2.37496 0.375 3.07954 0.375 3.95829V15.0416C0.375 15.4616 0.541815 15.8643 0.838748 16.1612C1.13568 16.4581 1.53841 16.625 1.95833 16.625H13.0417C13.4616 16.625 13.8643 16.4581 14.1613 16.1612C14.4582 15.8643 14.625 15.4616 14.625 15.0416V3.95829C14.625 3.53837 14.4582 3.13564 14.1613 2.83871C13.8643 2.54177 13.4616 2.37496 13.0417 2.37496H12.25V0.791626M11.4583 9.49996H7.5V13.4583H11.4583V9.49996Z" fill="#B5B5B5"/>
</svg>
