<svg width="23" height="24" viewBox="0 0 23 24" fill="none" xmlns="http://www.w3.org/2000/svg">
<g id="tabler:xbox-x-filled">
<path id="Vector" d="M11.5 2.41667C16.7929 2.41667 21.0833 6.70713 21.0833 12C21.0833 17.2929 16.7929 21.5833 11.5 21.5833C6.20712 21.5833 1.91666 17.2929 1.91666 12C1.91666 6.70713 6.20712 2.41667 11.5 2.41667ZM14.95 7.4C14.8493 7.32449 14.7347 7.26955 14.6128 7.23832C14.4909 7.20709 14.364 7.20017 14.2395 7.21797C14.1149 7.23577 13.995 7.27793 13.8867 7.34205C13.7784 7.40617 13.6838 7.49099 13.6083 7.59167L11.5 10.4025L9.39166 7.59167C9.31615 7.49099 9.22155 7.40617 9.11325 7.34205C9.00496 7.27793 8.8851 7.23577 8.76052 7.21797C8.63593 7.20017 8.50906 7.20709 8.38715 7.23832C8.26524 7.26955 8.15067 7.32449 8.04999 7.4C7.94931 7.47551 7.86449 7.57012 7.80037 7.67841C7.73625 7.7867 7.69409 7.90656 7.67629 8.03114C7.65849 8.15573 7.66541 8.2826 7.69664 8.40451C7.72787 8.52642 7.78281 8.64099 7.85832 8.74167L10.3021 12L7.85832 15.2583C7.70582 15.4617 7.64034 15.7173 7.67629 15.9689C7.71223 16.2205 7.84666 16.4475 8.04999 16.6C8.25332 16.7525 8.50891 16.818 8.76052 16.782C9.01213 16.7461 9.23916 16.6117 9.39166 16.4083L11.5 13.5975L13.6083 16.4083C13.7608 16.6117 13.9878 16.7461 14.2395 16.782C14.4911 16.818 14.7467 16.7525 14.95 16.6C15.1533 16.4475 15.2877 16.2205 15.3237 15.9689C15.3596 15.7173 15.2942 15.4617 15.1417 15.2583L12.6979 12L15.1417 8.74167C15.2172 8.64099 15.2721 8.52642 15.3033 8.40451C15.3346 8.2826 15.3415 8.15573 15.3237 8.03114C15.3059 7.90656 15.2637 7.7867 15.1996 7.67841C15.1355 7.57012 15.0507 7.47551 14.95 7.4Z" fill="#BABABA"/>
</g>
</svg>
