<svg width="17" height="18" viewBox="0 0 17 18" fill="none" xmlns="http://www.w3.org/2000/svg">
<g id="Google logo" clip-path="url(#clip0_1931_1096)">
<g id="Group">
<g id="Clip path group">
<mask id="mask0_1931_1096" style="mask-type:luminance" maskUnits="userSpaceOnUse" x="0" y="0" width="17" height="18">
<g id="B">
<path id="Vector" d="M16.6259 7.78066H8.76368V11.0406H13.2892C12.8674 13.1116 11.1032 14.3006 8.76368 14.3006C6.00231 14.3006 3.77788 12.0761 3.77788 9.31476C3.77788 6.55339 6.00231 4.32896 8.76368 4.32896C9.9526 4.32896 11.0265 4.75083 11.8702 5.44118L14.3248 2.98663C12.829 1.68265 10.9114 0.877254 8.76368 0.877254C4.0847 0.877254 0.326172 4.63578 0.326172 9.31476C0.326172 13.9937 4.0847 17.7523 8.76368 17.7523C12.9824 17.7523 16.8177 14.6841 16.8177 9.31476C16.8177 8.81618 16.741 8.27924 16.6259 7.78066Z" fill="white"/>
</g>
</mask>
<g mask="url(#mask0_1931_1096)">
<path id="Vector_2" d="M-0.441772 14.3006V4.32901L6.07812 9.31481L-0.441772 14.3006Z" fill="#FBBC05"/>
</g>
</g>
<g id="Clip path group_2">
<mask id="mask1_1931_1096" style="mask-type:luminance" maskUnits="userSpaceOnUse" x="0" y="0" width="17" height="18">
<g id="B_2">
<path id="Vector_3" d="M16.6259 7.78066H8.76368V11.0406H13.2892C12.8674 13.1116 11.1032 14.3006 8.76368 14.3006C6.00231 14.3006 3.77788 12.0761 3.77788 9.31476C3.77788 6.55339 6.00231 4.32896 8.76368 4.32896C9.9526 4.32896 11.0265 4.75083 11.8702 5.44118L14.3248 2.98663C12.829 1.68265 10.9114 0.877254 8.76368 0.877254C4.0847 0.877254 0.326172 4.63578 0.326172 9.31476C0.326172 13.9937 4.0847 17.7523 8.76368 17.7523C12.9824 17.7523 16.8177 14.6841 16.8177 9.31476C16.8177 8.81618 16.741 8.27924 16.6259 7.78066Z" fill="white"/>
</g>
</mask>
<g mask="url(#mask1_1931_1096)">
<path id="Vector_4" d="M-0.441772 4.32902L6.07812 9.31481L8.76278 6.97532L17.9673 5.47958V0.110264H-0.441772V4.32902Z" fill="#EA4335"/>
</g>
</g>
<g id="Clip path group_3">
<mask id="mask2_1931_1096" style="mask-type:luminance" maskUnits="userSpaceOnUse" x="0" y="0" width="17" height="18">
<g id="B_3">
<path id="Vector_5" d="M16.6259 7.78066H8.76368V11.0406H13.2892C12.8674 13.1116 11.1032 14.3006 8.76368 14.3006C6.00231 14.3006 3.77788 12.0761 3.77788 9.31476C3.77788 6.55339 6.00231 4.32896 8.76368 4.32896C9.9526 4.32896 11.0265 4.75083 11.8702 5.44118L14.3248 2.98663C12.829 1.68265 10.9114 0.877254 8.76368 0.877254C4.0847 0.877254 0.326172 4.63578 0.326172 9.31476C0.326172 13.9937 4.0847 17.7523 8.76368 17.7523C12.9824 17.7523 16.8177 14.6841 16.8177 9.31476C16.8177 8.81618 16.741 8.27924 16.6259 7.78066Z" fill="white"/>
</g>
</mask>
<g mask="url(#mask2_1931_1096)">
<path id="Vector_6" d="M-0.441772 14.3006L11.0639 5.47958L14.0937 5.86311L17.9673 0.110264V18.5194H-0.441772V14.3006Z" fill="#34A853"/>
</g>
</g>
<g id="Clip path group_4">
<mask id="mask3_1931_1096" style="mask-type:luminance" maskUnits="userSpaceOnUse" x="0" y="0" width="17" height="18">
<g id="B_4">
<path id="Vector_7" d="M16.6259 7.78066H8.76368V11.0406H13.2892C12.8674 13.1116 11.1032 14.3006 8.76368 14.3006C6.00231 14.3006 3.77788 12.0761 3.77788 9.31476C3.77788 6.55339 6.00231 4.32896 8.76368 4.32896C9.9526 4.32896 11.0265 4.75083 11.8702 5.44118L14.3248 2.98663C12.829 1.68265 10.9114 0.877254 8.76368 0.877254C4.0847 0.877254 0.326172 4.63578 0.326172 9.31476C0.326172 13.9937 4.0847 17.7523 8.76368 17.7523C12.9824 17.7523 16.8177 14.6841 16.8177 9.31476C16.8177 8.81618 16.741 8.27924 16.6259 7.78066Z" fill="white"/>
</g>
</mask>
<g mask="url(#mask3_1931_1096)">
<path id="Vector_8" d="M17.9682 18.5193L6.07901 9.31476L4.54492 8.16419L17.9682 4.32896V18.5193Z" fill="#4285F4"/>
</g>
</g>
</g>
</g>
<defs>
<clipPath id="clip0_1931_1096">
<rect width="16.875" height="16.875" fill="white" transform="translate(0.0625 0.877258)"/>
</clipPath>
</defs>
</svg>
