<svg width="14" height="14" viewBox="0 0 15 14" fill="none" xmlns="http://www.w3.org/2000/svg">
<path d="M7.2651 1.16663C5.0076 1.16663 3.18176 2.99246 3.18176 5.24996C3.18176 8.31246 7.2651 12.8333 7.2651 12.8333C7.2651 12.8333 11.3484 8.31246 11.3484 5.24996C11.3484 2.99246 9.5226 1.16663 7.2651 1.16663ZM7.2651 6.70829C6.87832 6.70829 6.50739 6.55465 6.2339 6.28116C5.96041 6.00767 5.80676 5.63673 5.80676 5.24996C5.80676 4.86319 5.96041 4.49225 6.2339 4.21876C6.50739 3.94527 6.87832 3.79163 7.2651 3.79163C7.65187 3.79163 8.0228 3.94527 8.29629 4.21876C8.56979 4.49225 8.72343 4.86319 8.72343 5.24996C8.72343 5.63673 8.56979 6.00767 8.29629 6.28116C8.0228 6.55465 7.65187 6.70829 7.2651 6.70829Z" fill="#565656"/>
</svg>
