<svg width="14" height="14" viewBox="0 0 14 14" fill="none" xmlns="http://www.w3.org/2000/svg">
<path d="M6.99998 7.00004C6.35831 7.00004 5.80901 6.77157 5.35206 6.31462C4.89512 5.85768 4.66665 5.30837 4.66665 4.66671C4.66665 4.02504 4.89512 3.47574 5.35206 3.01879C5.80901 2.56185 6.35831 2.33337 6.99998 2.33337C7.64165 2.33337 8.19095 2.56185 8.6479 3.01879C9.10484 3.47574 9.33331 4.02504 9.33331 4.66671C9.33331 5.30837 9.10484 5.85768 8.6479 6.31462C8.19095 6.77157 7.64165 7.00004 6.99998 7.00004ZM2.33331 11.6667V10.0334C2.33331 9.70282 2.41848 9.3991 2.58881 9.12221C2.75915 8.84532 2.98509 8.63376 3.26665 8.48754C3.86942 8.18615 4.48192 7.96021 5.10415 7.80971C5.72637 7.65921 6.35831 7.58376 6.99998 7.58337C7.64165 7.58298 8.27359 7.65843 8.89581 7.80971C9.51803 7.96098 10.1305 8.18693 10.7333 8.48754C11.0153 8.63337 11.2414 8.84493 11.4117 9.12221C11.5821 9.39948 11.667 9.70321 11.6666 10.0334V11.6667H2.33331Z" fill="#565656"/>
</svg>
