<svg width="14" height="15" viewBox="0 0 12 14" fill="none" xmlns="http://www.w3.org/2000/svg">
<g clip-path="url(#clip0_1507_1581)">
<path d="M6 1C8.7615 1 11 3.2385 11 6C11 8.7615 8.7615 11 6 11C3.2385 11 1 8.7615 1 6C1 3.2385 3.2385 1 6 1ZM6 3C5.86739 3 5.74022 3.05268 5.64645 3.14645C5.55268 3.24022 5.5 3.36739 5.5 3.5V6C5.50003 6.1326 5.55273 6.25975 5.6465 6.3535L7.1465 7.8535C7.2408 7.94458 7.3671 7.99498 7.4982 7.99384C7.6293 7.9927 7.75471 7.94011 7.84741 7.84741C7.94011 7.75471 7.9927 7.6293 7.99384 7.4982C7.99498 7.3671 7.94458 7.2408 7.8535 7.1465L6.5 5.793V3.5C6.5 3.36739 6.44732 3.24022 6.35355 3.14645C6.25979 3.05268 6.13261 3 6 3Z" fill="#565656"/>
</g>
<defs>
<clipPath id="clip0_1507_1581">
<rect width="12" height="12" fill="white"/>
</clipPath>
</defs>
</svg>
